MulatAbay-Thin.ufo
<glyph name="S" format="2">
  <advance width="1211"/>
  <unicode hex="0053"/>
  <note>
uni0053
</note>
  <outline>
    <contour>
      <point x="633" y="-20" type="curve" smooth="yes"/>
      <point x="889" y="-20"/>
      <point x="1127" y="103"/>
      <point x="1127" y="351" type="curve" smooth="yes"/>
      <point x="1127" y="610"/>
      <point x="891" y="704"/>
      <point x="640" y="769.5" type="curve" smooth="yes"/>
      <point x="324" y="851.5"/>
      <point x="197" y="947.333"/>
      <point x="197" y="1122" type="curve" smooth="yes"/>
      <point x="197" y="1294"/>
      <point x="370" y="1422"/>
      <point x="626" y="1422" type="curve" smooth="yes"/>
      <point x="880.667" y="1422"/>
      <point x="1057" y="1263.333"/>
      <point x="1057" y="1046" type="curve"/>
      <point x="1111" y="1046" type="line"/>
      <point x="1111" y="1237"/>
      <point x="1002" y="1345"/>
      <point x="888" y="1405" type="curve" smooth="yes"/>
      <point x="776" y="1463"/>
      <point x="658" y="1476"/>
      <point x="626" y="1476" type="curve" smooth="yes"/>
      <point x="518" y="1476"/>
      <point x="423" y="1456"/>
      <point x="347" y="1419" type="curve" smooth="yes"/>
      <point x="219" y="1358"/>
      <point x="143" y="1252"/>
      <point x="143" y="1120" type="curve" smooth="yes"/>
      <point x="143" y="862"/>
      <point x="383" y="784"/>
      <point x="609" y="722" type="curve" smooth="yes"/>
      <point x="838" y="659"/>
      <point x="1072" y="587"/>
      <point x="1072" y="349" type="curve" smooth="yes"/>
      <point x="1072" y="162.333"/>
      <point x="887.667" y="34"/>
      <point x="633" y="34" type="curve" smooth="yes"/>
      <point x="346.333" y="34"/>
      <point x="150" y="172.333"/>
      <point x="150" y="411" type="curve"/>
      <point x="96" y="411" type="line"/>
      <point x="96" y="235"/>
      <point x="181" y="102.5"/>
      <point x="349" y="32.5" type="curve" smooth="yes"/>
      <point x="433" y="-2.5"/>
      <point x="527.667" y="-20"/>
    </contour>
  </outline>
</glyph>
<glyph name="Z" format="2">
  <advance width="1224"/>
  <unicode hex="005A"/>
  <note>
uni005A
</note>
  <outline>
    <contour>
      <point x="94" y="0" type="line"/>
      <point x="1130" y="0" type="line"/>
      <point x="1130" y="54" type="line"/>
      <point x="168" y="54" type="line"/>
      <point x="1098" y="1418" type="line"/>
      <point x="1098" y="1456" type="line"/>
      <point x="134" y="1456" type="line"/>
      <point x="134" y="1403" type="line"/>
      <point x="1023" y="1403" type="line"/>
      <point x="94" y="44" type="line"/>
    </contour>
  </outline>
</glyph>
<glyph name="m" format="2">
  <advance width="1836"/>
  <unicode hex="006D"/>
  <note>
uni006D
</note>
  <outline>
    <contour>
      <point x="161" y="0" type="line"/>
      <point x="216" y="0" type="line"/>
      <point x="216" y="684" type="line"/>
      <point x="253" y="878"/>
      <point x="392" y="1049"/>
      <point x="596" y="1049" type="curve" smooth="yes"/>
      <point x="801.333" y="1049"/>
      <point x="890.667" y="944.333"/>
      <point x="892" y="727" type="curve" smooth="yes"/>
      <point x="892" y="0" type="line"/>
      <point x="946" y="0" type="line"/>
      <point x="946" y="720" type="line"/>
      <point x="955" y="840"/>
      <point x="1080" y="1045"/>
      <point x="1330" y="1049" type="curve" smooth="yes"/>
      <point x="1534" y="1051.667"/>
      <point x="1626" y="939.333"/>
      <point x="1626" y="702" type="curve" smooth="yes"/>
      <point x="1626" y="0" type="line"/>
      <point x="1680" y="0" type="line"/>
      <point x="1680" y="706" type="line" smooth="yes"/>
      <point x="1678.667" y="970"/>
      <point x="1566.333" y="1102"/>
      <point x="1333" y="1102" type="curve" smooth="yes"/>
      <point x="1154.333" y="1102"/>
      <point x="999" y="1002"/>
      <point x="935" y="846" type="curve"/>
      <point x="899" y="1027.333"/>
      <point x="780.333" y="1102"/>
      <point x="599" y="1102" type="curve" smooth="yes"/>
      <point x="433.667" y="1102"/>
      <point x="289.333" y="1002"/>
      <point x="216" y="826" type="curve"/>
      <point x="216" y="1082" type="line"/>
      <point x="161" y="1082" type="line"/>
    </contour>
  </outline>
</glyph>
<glyph name="asciitilde" format="2">
  <advance width="1412"/>
  <unicode hex="007E"/>
  <note>
uni007E
</note>
  <outline>
    <contour>
      <point x="977" y="443" type="curve" smooth="yes"/>
      <point x="1139.667" y="443"/>
      <point x="1246" y="568"/>
      <point x="1246" y="752" type="curve"/>
      <point x="1190" y="753" type="line"/>
      <point x="1190" y="590.333"/>
      <point x="1111.667" y="496"/>
      <point x="977" y="496" type="curve" smooth="yes"/>
      <point x="901" y="496"/>
      <point x="852.333" y="513.167"/>
      <point x="723" y="628.5" type="curve" smooth="yes"/>
      <point x="593.667" y="743.833"/>
      <point x="524" y="774"/>
      <point x="428" y="774" type="curve" smooth="yes"/>
      <point x="261.333" y="774"/>
      <point x="160" y="652.667"/>
      <point x="160" y="462" type="curve"/>
      <point x="215" y="462" type="line"/>
      <point x="215" y="632.667"/>
      <point x="294.667" y="720"/>
      <point x="428" y="720" type="curve" smooth="yes"/>
      <point x="509.333" y="720"/>
      <point x="556.5" y="702"/>
      <point x="686.5" y="586" type="curve" smooth="yes"/>
      <point x="816.5" y="470"/>
      <point x="882.333" y="443"/>
    </contour>
  </outline>
</glyph>
<glyph name="Eth" format="2">
  <advance width="1370"/>
  <unicode hex="00D0"/>
  <note>
uni00D0
</note>
  <outline>
    <contour>
      <point x="230" y="0" type="line"/>
      <point x="638" y="0" type="line" smooth="yes"/>
      <point x="980" y="2"/>
      <point x="1234" y="265"/>
      <point x="1234" y="639" type="curve" smooth="yes"/>
      <point x="1234" y="828" type="line" smooth="yes"/>
      <point x="1231.333" y="1066.667"/>
      <point x="1121.667" y="1269.333"/>
      <point x="939" y="1376" type="curve" smooth="yes"/>
      <point x="847.667" y="1429.333"/>
      <point x="745.667" y="1456"/>
      <point x="633" y="1456" type="curve" smooth="yes"/>
      <point x="230" y="1456" type="line"/>
      <point x="230" y="767" type="line"/>
      <point x="60" y="767" type="line"/>
      <point x="60" y="713" type="line"/>
      <point x="230" y="713" type="line"/>
    </contour>
    <contour>
      <point x="284" y="54" type="line"/>
      <point x="284" y="713" type="line"/>
      <point x="647" y="713" type="line"/>
      <point x="647" y="767" type="line"/>
      <point x="284" y="767" type="line"/>
      <point x="284" y="1402" type="line"/>
      <point x="641" y="1402" type="line" smooth="yes"/>
      <point x="1123.992" y="1391.099"/>
      <point x="1180" y="877"/>
      <point x="1180" y="820" type="curve" smooth="yes"/>
      <point x="1180" y="647" type="line" smooth="yes"/>
      <point x="1180" y="299"/>
      <point x="952.333" y="54"/>
      <point x="623" y="54" type="curve" smooth="yes"/>
    </contour>
  </outline>
</glyph>
<glyph name="comma-ethiopic" format="2">
  <advance width="556"/>
  <unicode hex="1363"/>
  <outline>
    <contour>
      <point x="98" y="882" type="line"/>
      <point x="417" y="882" type="line"/>
      <point x="417" y="939" type="line"/>
      <point x="98" y="939" type="line"/>
    </contour>
    <component base="period" xOffset="20" yOffset="100"/>
    <component base="period" xOffset="67" yOffset="571"/>
  </outline>
</glyph>
<glyph name="semicolon-ethiopic" format="2">
  <advance width="556"/>
  <unicode hex="1364"/>
  <outline>
    <contour>
      <point x="98" y="915" type="line"/>
      <point x="418" y="915" type="line"/>
      <point x="418" y="973" type="line"/>
      <point x="98" y="973" type="line"/>
    </contour>
    <contour>
      <point x="90" y="48" type="line"/>
      <point x="414" y="48" type="line"/>
      <point x="414" y="116" type="line"/>
      <point x="90" y="116" type="line"/>
    </contour>
    <component base="period" xOffset="21" yOffset="638"/>
    <component base="period" xOffset="20" yOffset="298"/>
  </outline>
</glyph>
<glyph name="colon-ethiopic" format="2">
  <advance width="556"/>
  <unicode hex="1365"/>
  <outline>
    <contour>
      <point x="154" y="512" type="line"/>
      <point x="383" y="512" type="line"/>
      <point x="383" y="551" type="line"/>
      <point x="154" y="551" type="line"/>
    </contour>
    <component base="period" xOffset="87" yOffset="172"/>
    <component base="period" xOffset="76" yOffset="757"/>
  </outline>
</glyph>
<glyph name="prefacecolon-ethiopic" format="2">
  <advance width="730"/>
  <unicode hex="1366"/>
  <outline>
    <contour>
      <point x="383" y="507" type="line"/>
      <point x="613" y="507" type="line"/>
      <point x="613" y="615" type="line"/>
      <point x="383" y="615" type="line"/>
    </contour>
    <component base="period" xOffset="20" yOffset="292"/>
    <component base="period" xOffset="3" yOffset="827"/>
  </outline>
</glyph>
<glyph name="question-ethiopic" format="2">
  <advance width="556"/>
  <unicode hex="1367"/>
  <outline>
    <contour>
      <point x="242" y="555" type="curve" smooth="yes"/>
      <point x="273" y="555"/>
      <point x="298" y="579"/>
      <point x="298" y="610" type="curve" smooth="yes"/>
      <point x="298" y="641"/>
      <point x="273" y="666"/>
      <point x="242" y="666" type="curve" smooth="yes"/>
      <point x="211" y="666"/>
      <point x="187" y="641"/>
      <point x="187" y="610" type="curve" smooth="yes"/>
      <point x="187" y="579"/>
      <point x="211" y="555"/>
    </contour>
    <component base="period" xOffset="50" yOffset="248"/>
    <component base="period" xOffset="44" yOffset="818"/>
  </outline>
</glyph>
<glyph name="two-ethiopic" format="2">
  <advance width="1399"/>
  <unicode hex="136A"/>
  <outline>
    <contour>
      <point x="773" y="-20" type="curve" smooth="yes"/>
      <point x="1034" y="-20"/>
      <point x="1207" y="138"/>
      <point x="1207" y="386" type="curve" smooth="yes"/>
      <point x="1207" y="578"/>
      <point x="1094" y="701"/>
      <point x="903" y="745" type="curve"/>
      <point x="1070" y="796"/>
      <point x="1175" y="926"/>
      <point x="1175" y="1081" type="curve" smooth="yes"/>
      <point x="1175" y="1324"/>
      <point x="1016" y="1476"/>
      <point x="764" y="1476" type="curve" smooth="yes"/>
      <point x="386" y="1473"/>
      <point x="338" y="1156"/>
      <point x="334" y="1074" type="curve" smooth="yes"/>
      <point x="303" y="405" type="line" smooth="yes"/>
      <point x="291" y="138"/>
      <point x="522" y="-20"/>
    </contour>
    <contour>
      <point x="773" y="34" type="curve" smooth="yes"/>
      <point x="533" y="34"/>
      <point x="347" y="192"/>
      <point x="357" y="405" type="curve" smooth="yes"/>
      <point x="388" y="1074" type="line" smooth="yes"/>
      <point x="398" y="1282"/>
      <point x="545" y="1422"/>
      <point x="764" y="1422" type="curve" smooth="yes"/>
      <point x="988" y="1422"/>
      <point x="1121" y="1292"/>
      <point x="1121" y="1085" type="curve" smooth="yes"/>
      <point x="1121" y="904"/>
      <point x="967" y="770"/>
      <point x="739" y="770" type="curve" smooth="yes"/>
      <point x="617" y="770" type="line"/>
      <point x="617" y="714" type="line"/>
      <point x="731" y="714" type="line" smooth="yes"/>
      <point x="1007" y="714"/>
      <point x="1153" y="597"/>
      <point x="1153" y="382" type="curve" smooth="yes"/>
      <point x="1153" y="165"/>
      <point x="1012" y="34"/>
    </contour>
    <component base="_num.bar" xOffset="100"/>
  </outline>
</glyph>
<glyph name="thirty-ethiopic" format="2">
  <advance width="1423"/>
  <unicode hex="1374"/>
  <outline>
    <contour>
      <point x="246" y="0" type="line"/>
      <point x="308" y="0" type="line"/>
      <point x="308" y="1402" type="line"/>
      <point x="650" y="1402" type="line"/>
      <point x="650" y="0" type="line"/>
      <point x="1146" y="0" type="line" smooth="yes"/>
      <point x="1157" y="0"/>
      <point x="1166" y="9"/>
      <point x="1166" y="20" type="curve" smooth="yes"/>
      <point x="1166" y="1456" type="line"/>
      <point x="1104" y="1456" type="line"/>
      <point x="1104" y="54" type="line"/>
      <point x="733" y="54" type="line"/>
      <point x="733" y="1456" type="line"/>
      <point x="266" y="1456" type="line" smooth="yes"/>
      <point x="255" y="1456"/>
      <point x="246" y="1447"/>
      <point x="246" y="1436" type="curve" smooth="yes"/>
    </contour>
    <component base="_num.bar" xOffset="103"/>
  </outline>
</glyph>
<glyph name="seventy-ethiopic" format="2">
  <advance width="1150"/>
  <unicode hex="1378"/>
  <outline>
    <contour>
      <point x="562" y="-20" type="curve" smooth="yes"/>
      <point x="681" y="-20"/>
      <point x="778" y="22"/>
      <point x="850" y="101" type="curve"/>
      <point x="784" y="115" type="line"/>
      <point x="725" y="62"/>
      <point x="651" y="34"/>
      <point x="562" y="34" type="curve" smooth="yes"/>
      <point x="320.667" y="34"/>
      <point x="179" y="244"/>
      <point x="179" y="596" type="curve" smooth="yes"/>
      <point x="179" y="857" type="line" smooth="yes"/>
      <point x="179" y="1215.667"/>
      <point x="314.667" y="1423"/>
      <point x="560" y="1423" type="curve" smooth="yes"/>
      <point x="656" y="1423"/>
      <point x="736" y="1391"/>
      <point x="797" y="1330" type="curve"/>
      <point x="863" y="1339" type="line"/>
      <point x="790" y="1429"/>
      <point x="687" y="1477"/>
      <point x="560" y="1477" type="curve" smooth="yes"/>
      <point x="285.333" y="1477"/>
      <point x="125" y="1248.667"/>
      <point x="125" y="862" type="curve" smooth="yes"/>
      <point x="125" y="598" type="line" smooth="yes"/>
      <point x="125" y="206"/>
      <point x="288.667" y="-20"/>
    </contour>
    <component base="_num.bar"/>
    <component base="ring" xOffset="470" yOffset="-170"/>
  </outline>
</glyph>
<glyph name="quoteleft" format="2">
  <advance width="320"/>
  <unicode hex="2018"/>
  <note>
uni2018
</note>
  <outline>
    <contour>
      <point x="101" y="1168" type="line"/>
      <point x="155" y="1168" type="line"/>
      <point x="155" y="1288" type="line" smooth="yes"/>
      <point x="157" y="1372"/>
      <point x="186.667" y="1450"/>
      <point x="244" y="1522" type="curve"/>
      <point x="207" y="1554" type="line"/>
      <point x="139" y="1481.333"/>
      <point x="103.667" y="1392"/>
      <point x="101" y="1286" type="curve" smooth="yes"/>
    </contour>
  </outline>
</glyph>
<glyph name="uniF6C3" format="2">
  <advance width="459"/>
  <unicode hex="F6C3"/>
  <note>
uniF6C3
</note>
  <outline>
    <contour>
      <point x="188" y="-203" type="line"/>
      <point x="244.667" y="-138.333"/>
      <point x="273.333" y="-58.333"/>
      <point x="274" y="37" type="curve" smooth="yes"/>
      <point x="274" y="116" type="line"/>
      <point x="220" y="116" type="line"/>
      <point x="219" y="5" type="line"/>
      <point x="215" y="-55"/>
      <point x="192.333" y="-113.667"/>
      <point x="151" y="-171" type="curve"/>
    </contour>
  </outline>
</glyph>
<glyph name="_smart.fa" format="2">
  <anchor x="433" y="54" name="_fa"/>
  <outline>
    <contour>
      <point x="433" y="15" type="line"/>
      <point x="249" y="535" type="line"/>
      <point x="42" y="535" type="line"/>
      <point x="61" y="482" type="line"/>
      <point x="211" y="482" type="line"/>
      <point x="376" y="15" type="line"/>
    </contour>
  </outline>
</glyph>
<glyph name="_smart.hat.caps" format="2">
  <anchor x="320" y="1636" name="_hat.cap"/>
  <anchor x="27" y="1654" name="_hat.caps"/>
  <outline>
    <contour>
      <point x="-304" y="1682" type="line"/>
      <point x="370" y="1682" type="line"/>
      <point x="370" y="1725" type="line"/>
      <point x="-304" y="1725" type="line"/>
    </contour>
  </outline>
</glyph>
<glyph name="_smart.hat" format="2">
  <anchor x="-19" y="112" name="_hat"/>
  <outline>
    <contour>
      <point x="-278" y="109" type="line"/>
      <point x="237" y="109" type="line"/>
      <point x="237" y="153" type="line"/>
      <point x="-278" y="153" type="line"/>
    </contour>
  </outline>
</glyph>
<glyph name="_smart.nose.extend" format="2">
  <anchor x="-31" y="1061" name="_nose.extend"/>
  <outline>
    <contour>
      <point x="-31" y="1061" type="line"/>
      <point x="-31" y="797" type="line"/>
      <point x="10" y="797" type="line"/>
      <point x="10" y="1061" type="line"/>
    </contour>
  </outline>
</glyph>
<glyph name="_smart.raa.cap" format="2">
  <anchor x="913" y="180" name="_raa.cap"/>
  <outline>
    <contour>
      <point x="718" y="180" type="line"/>
      <point x="778" y="180" type="line"/>
      <point x="973" y="446" type="line"/>
      <point x="907" y="446" type="line"/>
    </contour>
  </outline>
</glyph>
<glyph name="_smart.ri.cap" format="2">
  <anchor x="913" y="180" name="_ri.cap"/>
  <outline>
    <contour>
      <point x="973" y="180" type="line"/>
      <point x="784" y="446" type="line"/>
      <point x="718" y="446" type="line"/>
      <point x="913" y="180" type="line"/>
    </contour>
  </outline>
</glyph>
<glyph name="_smart.xwaa" format="2">
  <advance width="762"/>
  <anchor x="370" y="19" name="_xwaa"/>
  <outline>
    <contour>
      <point x="218" y="-37" type="line"/>
      <point x="694" y="-37" type="line"/>
      <point x="694" y="-259" type="line"/>
      <point x="754" y="-259" type="line"/>
      <point x="754" y="7" type="line"/>
      <point x="218" y="7" type="line"/>
    </contour>
  </outline>
</glyph>
<glyph name="_smart.ye.extend" format="2">
  <anchor x="337" y="-64" name="_haa.acute"/>
  <anchor x="369" y="0" name="_ye.extend"/>
  <outline>
    <contour>
      <point x="223" y="0" type="line"/>
      <point x="223" y="-290" type="line"/>
      <point x="275" y="-290" type="line"/>
      <point x="275" y="0" type="line"/>
    </contour>
  </outline>
</glyph>
<glyph name="_smart.yee" format="2">
  <anchor x="-356" y="322" name="_yee"/>
  <outline>
    <contour>
      <point x="-55" y="-79" type="curve" smooth="yes"/>
      <point x="70" y="-79"/>
      <point x="167" y="18"/>
      <point x="167" y="142" type="curve" smooth="yes"/>
      <point x="167" y="267"/>
      <point x="70" y="369"/>
      <point x="-55" y="369" type="curve" smooth="yes"/>
      <point x="-176" y="369"/>
      <point x="-277" y="272"/>
      <point x="-277" y="142" type="curve" smooth="yes"/>
      <point x="-277" y="12"/>
      <point x="-175" y="-79"/>
    </contour>
    <contour>
      <point x="-56" y="-41" type="curve" smooth="yes"/>
      <point x="-158" y="-41"/>
      <point x="-231" y="30"/>
      <point x="-231" y="133" type="curve" smooth="yes"/>
      <point x="-231" y="241"/>
      <point x="-158" y="313"/>
      <point x="-56" y="313" type="curve" smooth="yes"/>
      <point x="46" y="313"/>
      <point x="119" y="241"/>
      <point x="119" y="133" type="curve" smooth="yes"/>
      <point x="119" y="30"/>
      <point x="46" y="-41"/>
    </contour>
  </outline>
</glyph>
<glyph name="_smart.yu" format="2">
  <anchor x="149" y="726" name="_yu"/>
  <outline>
    <contour>
      <point x="163" y="781" type="line"/>
      <point x="598" y="781" type="line"/>
      <point x="598" y="835" type="line"/>
      <point x="163" y="835" type="line"/>
    </contour>
    <contour>
      <point x="463" y="691" type="line"/>
      <point x="898" y="691" type="line"/>
      <point x="898" y="745" type="line"/>
      <point x="463" y="745" type="line"/>
    </contour>
  </outline>
</glyph>
<glyph name="abesha.base" format="2">
  <advance width="1241"/>
  <anchor x="178" y="1322" name="aGlhat"/>
  <anchor x="987" y="-40" name="haa"/>
  <anchor x="187" y="1590" name="hat.left"/>
  <anchor x="302" y="1741" name="he.left.inner"/>
  <anchor x="856" y="110" name="hee"/>
  <anchor x="1051" y="50" name="hi"/>
  <anchor x="260" y="-21" name="ho"/>
  <anchor x="1208" y="648" name="ho.ring"/>
  <anchor x="321" y="320" name="ho.ring.uniq"/>
  <anchor x="1049" y="667" name="hu"/>
  <anchor x="991" y="-34" name="hwa"/>
  <outline>
    <contour>
      <point x="232" y="0" type="line"/>
      <point x="286" y="0" type="line"/>
      <point x="286" y="693" type="line"/>
      <point x="334" y="902"/>
      <point x="480" y="1049"/>
      <point x="667" y="1049" type="curve" smooth="yes"/>
      <point x="870" y="1049"/>
      <point x="960" y="940"/>
      <point x="960" y="708" type="curve" smooth="yes"/>
      <point x="960" y="0" type="line"/>
      <point x="1014" y="0" type="line"/>
      <point x="1014" y="706" type="line" smooth="yes"/>
      <point x="1014" y="971"/>
      <point x="902" y="1102"/>
      <point x="670" y="1102" type="curve" smooth="yes"/>
      <point x="503" y="1102"/>
      <point x="357" y="998"/>
      <point x="286" y="830" type="curve"/>
      <point x="286" y="1151" type="line"/>
      <point x="576" y="1536" type="line"/>
      <point x="522" y="1536" type="line"/>
      <point x="232" y="1167" type="line"/>
    </contour>
    <contour>
      <point x="380" y="1460" type="line"/>
      <point x="191" y="1726" type="line"/>
      <point x="125" y="1726" type="line"/>
      <point x="320" y="1460" type="line"/>
    </contour>
  </outline>
</glyph>
<glyph name="acute.yu" format="2">
  <advance width="1040"/>
  <outline>
    <contour>
      <point x="221" y="368" type="line"/>
      <point x="221" y="314" type="line"/>
      <point x="547" y="314" type="line"/>
      <point x="547" y="368" type="line"/>
    </contour>
  </outline>
</glyph>
<glyph name="ba.base.cap" format="2">
  <advance width="1365"/>
  <anchor x="1153" y="-25" name="haa"/>
  <anchor x="588" y="1678" name="hat.caps"/>
  <anchor x="279" y="1555" name="hat.left"/>
  <anchor x="681" y="1481" name="he.acute.top"/>
  <anchor x="280.395" y="772" name="he.left.inner"/>
  <anchor x="79.086" y="764" name="he.left.outer"/>
  <anchor x="1015" y="119" name="hee"/>
  <anchor x="1198" y="53" name="hi"/>
  <anchor x="213" y="-19" name="ho"/>
  <anchor x="224" y="26" name="ho.caps"/>
  <anchor x="1224" y="866" name="hu"/>
  <anchor x="1152" y="23" name="hwa"/>
  <anchor x="591.02" y="1480" name="ka.caps"/>
  <anchor x="679.462" y="1475" name="neck.caps"/>
  <outline>
    <contour>
      <point x="185" y="0" type="line"/>
      <point x="239" y="0" type="line"/>
      <point x="239" y="984" type="line" smooth="yes"/>
      <point x="239" y="1253"/>
      <point x="415" y="1422"/>
      <point x="683" y="1422" type="curve" smooth="yes"/>
      <point x="951" y="1422"/>
      <point x="1126" y="1254"/>
      <point x="1126" y="983" type="curve" smooth="yes"/>
      <point x="1126" y="0" type="line"/>
      <point x="1180" y="0" type="line"/>
      <point x="1180" y="986" type="line" smooth="yes"/>
      <point x="1180" y="1294"/>
      <point x="988" y="1476"/>
      <point x="683" y="1476" type="curve" smooth="yes"/>
      <point x="378" y="1476"/>
      <point x="185" y="1293"/>
      <point x="185" y="990" type="curve" smooth="yes"/>
    </contour>
  </outline>
</glyph>
<glyph name="eGlottal-ethiopic.liga" format="2">
  <advance width="1112"/>
  <anchor x="1048" y="-24" name="haa"/>
  <anchor x="225.46" y="1677.0" name="hat"/>
  <anchor x="225.46" y="1677.0" name="hat.left"/>
  <anchor x="1051.208" y="-1.0" name="hee"/>
  <anchor x="62" y="-32" name="ho"/>
  <anchor x="794" y="965" name="hu"/>
  <anchor x="1077" y="-31" name="hwa"/>
  <anchor x="1196.817" y="4.0" name="ni"/>
  <outline>
    <contour>
      <point x="-108" y="1746" type="line"/>
      <point x="-4" y="1487" type="line"/>
      <point x="45" y="1507" type="line"/>
      <point x="-59" y="1766" type="line"/>
    </contour>
    <component base="aGl.base.cap"/>
  </outline>
</glyph>
<glyph name="ga.base" format="2">
  <advance width="786"/>
  <anchor x="760" y="21" name="haa"/>
  <anchor x="631" y="-60" name="haa.acute"/>
  <anchor x="407" y="1367" name="hat"/>
  <anchor x="301" y="1176" name="hat.left"/>
  <anchor x="596" y="701" name="he.left.outer"/>
  <anchor x="642" y="40" name="hee"/>
  <anchor x="699" y="50" name="hi"/>
  <anchor x="410" y="853" name="ho.ring"/>
  <anchor x="700" y="638" name="hu"/>
  <anchor x="664" y="0" name="hwa"/>
  <anchor x="324" y="1102" name="neck"/>
  <anchor x="154" y="1101" name="neck.left"/>
  <anchor x="66" y="1235" name="nose"/>
  <anchor x="47" y="1084" name="nose.extend"/>
  <anchor x="528" y="1010" name="ring"/>
  <anchor x="462" y="1" name="xwaa"/>
  <outline>
    <contour>
      <point x="611" y="0" type="line"/>
      <point x="666" y="0" type="line"/>
      <point x="666" y="706" type="line" smooth="yes"/>
      <point x="666" y="971"/>
      <point x="553" y="1102"/>
      <point x="321" y="1102" type="curve"/>
      <point x="105" y="1102" type="line"/>
      <point x="105" y="1049" type="line"/>
      <point x="318" y="1049" type="line"/>
      <point x="521" y="1049"/>
      <point x="611" y="940"/>
      <point x="611" y="708" type="curve" smooth="yes"/>
    </contour>
  </outline>
</glyph>
<glyph name="la.base.cap" format="2">
  <advance width="1211"/>
  <anchor x="1146" y="-28" name="haa"/>
  <anchor x="1039" y="77" name="hee"/>
  <anchor x="1195" y="50" name="hi"/>
  <anchor x="1103" y="1076" name="ho.ring"/>
  <anchor x="105" y="203" name="ho.ring.uniq"/>
  <anchor x="771" y="1081" name="hu"/>
  <anchor x="1146" y="-61" name="hwa"/>
  <outline>
    <contour>
      <point x="33" y="0" type="line"/>
      <point x="82" y="0" type="line"/>
      <point x="600" y="1242" type="line"/>
      <point x="1118" y="0" type="line"/>
      <point x="1177" y="0" type="line"/>
      <point x="529" y="1553" type="line"/>
      <point x="484" y="1544" type="line"/>
      <point x="580" y="1296" type="line"/>
    </contour>
  </outline>
</glyph>
<glyph name="nine.frac0" format="2">
  <advance width="751"/>
  <note>
glyph00549
</note>
  <outline>
    <contour>
      <point x="202" y="-8" type="line"/>
      <point x="225" y="-8" type="line" smooth="yes"/>
      <point x="479.667" y="-6.667"/>
      <point x="620" y="139"/>
      <point x="620" y="411" type="curve" smooth="yes"/>
      <point x="620" y="486" type="line" smooth="yes"/>
      <point x="620" y="683.333"/>
      <point x="523" y="800"/>
      <point x="347" y="800" type="curve" smooth="yes"/>
      <point x="191" y="800"/>
      <point x="78" y="679.667"/>
      <point x="78" y="521" type="curve" smooth="yes"/>
      <point x="78" y="373"/>
      <point x="183.667" y="255"/>
      <point x="337" y="255" type="curve" smooth="yes"/>
      <point x="439.667" y="255"/>
      <point x="523.333" y="302.667"/>
      <point x="566" y="372" type="curve"/>
      <point x="563.333" y="158.667"/>
      <point x="445" y="42.667"/>
      <point x="203" y="40" type="curve"/>
    </contour>
    <contour>
      <point x="342" y="304" type="curve" smooth="yes"/>
      <point x="218" y="304"/>
      <point x="134" y="400.667"/>
      <point x="134" y="522" type="curve" smooth="yes"/>
      <point x="134" y="648.667"/>
      <point x="224" y="750"/>
      <point x="348" y="750" type="curve" smooth="yes"/>
      <point x="482.667" y="750"/>
      <point x="566" y="664.333"/>
      <point x="566" y="491" type="curve" smooth="yes"/>
      <point x="566" y="453" type="line"/>
      <point x="536.667" y="365"/>
      <point x="448.667" y="304"/>
    </contour>
  </outline>
</glyph>
<glyph name="ra.base" format="2">
  <advance width="1117"/>
  <anchor x="825" y="71" name="fa"/>
  <anchor x="734" y="-53" name="haa"/>
  <anchor x="738" y="-81" name="haa.acute"/>
  <anchor x="505" y="1051" name="hat"/>
  <anchor x="361.562" y="1041" name="hat.left"/>
  <anchor x="1042" y="-39" name="hee"/>
  <anchor x="943" y="985" name="ho.ring"/>
  <anchor x="728" y="-160" name="hu"/>
  <anchor x="696" y="4" name="hwa"/>
  <anchor x="1000.347" y="305" name="ra"/>
  <anchor x="842" y="145" name="raa"/>
  <anchor x="973" y="99" name="ri"/>
  <outline>
    <contour>
      <point x="627" y="-24" type="curve"/>
      <point x="1067" y="-24" type="line"/>
      <point x="1066" y="24" type="line"/>
      <point x="607" y="24" type="line"/>
      <point x="336" y="34"/>
      <point x="300" y="270"/>
      <point x="300" y="517" type="curve" smooth="yes"/>
      <point x="300" y="1082" type="line"/>
      <point x="245" y="1082" type="line"/>
      <point x="245" y="524" type="line" smooth="yes"/>
      <point x="245" y="187"/>
      <point x="334" y="-20"/>
    </contour>
  </outline>
</glyph>
<glyph name="tsa.base" format="2">
  <advance width="1123"/>
  <anchor x="912" y="-16" name="haa"/>
  <anchor x="606" y="1353" name="hat"/>
  <anchor x="1067" y="788" name="he"/>
  <anchor x="812" y="70" name="hee"/>
  <anchor x="955" y="50" name="hi"/>
  <anchor x="217" y="-9" name="ho"/>
  <anchor x="898" y="459" name="hu"/>
  <anchor x="908" y="6" name="hwa"/>
  <anchor x="549" y="1105" name="neck"/>
  <outline>
    <contour>
      <point x="186" y="0" type="line"/>
      <point x="241" y="0" type="line"/>
      <point x="241" y="285" type="line" smooth="yes"/>
      <point x="241" y="403"/>
      <point x="353" y="530"/>
      <point x="562" y="530" type="curve" smooth="yes"/>
      <point x="770" y="530"/>
      <point x="883" y="403"/>
      <point x="883" y="285" type="curve" smooth="yes"/>
      <point x="883" y="0" type="line"/>
      <point x="937" y="0" type="line"/>
      <point x="937" y="292" type="line" smooth="yes"/>
      <point x="937" y="447"/>
      <point x="791" y="515"/>
      <point x="663" y="554" type="curve"/>
      <point x="865" y="610"/>
      <point x="936" y="690"/>
      <point x="936" y="829" type="curve" smooth="yes"/>
      <point x="936" y="988"/>
      <point x="789" y="1102"/>
      <point x="574" y="1102" type="curve" smooth="yes"/>
      <point x="334" y="1102"/>
      <point x="187" y="988"/>
      <point x="187" y="829" type="curve" smooth="yes"/>
      <point x="187" y="690"/>
      <point x="258" y="610"/>
      <point x="460" y="554" type="curve"/>
      <point x="334" y="516"/>
      <point x="186" y="452"/>
      <point x="186" y="292" type="curve" smooth="yes"/>
    </contour>
    <contour>
      <point x="562" y="581" type="curve" smooth="yes"/>
      <point x="394" y="581"/>
      <point x="241" y="672"/>
      <point x="241" y="831" type="curve" smooth="yes"/>
      <point x="241" y="955"/>
      <point x="360" y="1048"/>
      <point x="574" y="1048" type="curve" smooth="yes"/>
      <point x="763" y="1048"/>
      <point x="882" y="955"/>
      <point x="882" y="831" type="curve" smooth="yes"/>
      <point x="882" y="672"/>
      <point x="729" y="581"/>
    </contour>
  </outline>
</glyph>
<glyph name="wa.base" format="2">
  <advance width="1500"/>
  <anchor x="771" y="0" name="haa"/>
  <anchor x="738" y="-90" name="haa.acute"/>
  <anchor x="809" y="1363" name="hat"/>
  <anchor x="751" y="1232" name="he.acute.top"/>
  <anchor x="817" y="0" name="hee"/>
  <anchor x="864" y="-289" name="hi"/>
  <anchor x="930" y="1340" name="ho.ring"/>
  <anchor x="1374" y="743" name="hu"/>
  <anchor x="752" y="-40" name="hwa"/>
  <anchor x="723" y="1102" name="neck"/>
  <outline>
    <contour>
      <point x="576" y="-20" type="curve" smooth="yes"/>
      <point x="618" y="-20"/>
      <point x="655" y="-8"/>
      <point x="744" y="37" type="curve"/>
      <point x="774" y="38" type="line"/>
      <point x="817" y="7"/>
      <point x="850" y="-20"/>
      <point x="929" y="-20" type="curve" smooth="yes"/>
      <point x="1180" y="-20"/>
      <point x="1335" y="191"/>
      <point x="1335" y="538" type="curve" smooth="yes"/>
      <point x="1335" y="897"/>
      <point x="1184" y="1102"/>
      <point x="927" y="1102" type="curve" smooth="yes"/>
      <point x="877" y="1102"/>
      <point x="831" y="1095"/>
      <point x="790" y="1082" type="curve"/>
      <point x="723" y="1081" type="line"/>
      <point x="677" y="1096"/>
      <point x="629" y="1102"/>
      <point x="578" y="1102" type="curve" smooth="yes"/>
      <point x="325" y="1102"/>
      <point x="170" y="897"/>
      <point x="170" y="552" type="curve" smooth="yes"/>
      <point x="170" y="191"/>
      <point x="322" y="-20"/>
    </contour>
    <contour>
      <point x="575" y="34" type="curve" smooth="yes"/>
      <point x="352" y="34"/>
      <point x="226" y="224"/>
      <point x="226" y="531" type="curve" smooth="yes"/>
      <point x="226" y="871"/>
      <point x="356" y="1048"/>
      <point x="577" y="1048" type="curve" smooth="yes"/>
      <point x="631" y="1048"/>
      <point x="680" y="1040"/>
      <point x="723" y="1024" type="curve"/>
      <point x="723" y="70" type="line"/>
      <point x="670" y="46"/>
      <point x="620" y="34"/>
    </contour>
    <contour>
      <point x="930" y="34" type="curve" smooth="yes"/>
      <point x="888" y="34"/>
      <point x="847" y="40"/>
      <point x="793" y="65" type="curve"/>
      <point x="793" y="1028" type="line"/>
      <point x="828" y="1039"/>
      <point x="862" y="1045"/>
      <point x="893" y="1048" type="curve" smooth="yes"/>
      <point x="1150" y="1071"/>
      <point x="1279" y="842"/>
      <point x="1279" y="531" type="curve" smooth="yes"/>
      <point x="1279" y="224"/>
      <point x="1161" y="34"/>
    </contour>
  </outline>
</glyph>
<glyph name="ya.base" format="2">
  <advance width="1082"/>
  <anchor x="115" y="54" name="da"/>
  <anchor x="791" y="-69" name="di"/>
  <anchor x="693" y="164" name="du"/>
  <anchor x="776" y="-10" name="haa"/>
  <anchor x="381" y="-65" name="haa.acute"/>
  <anchor x="560" y="1341" name="hat"/>
  <anchor x="1082" y="756" name="he"/>
  <anchor x="214" y="970" name="he.left.outer"/>
  <anchor x="834" y="12" name="hee"/>
  <anchor x="929" y="11" name="hha"/>
  <anchor x="825" y="-300" name="hi"/>
  <anchor x="80" y="-11" name="ho"/>
  <anchor x="781" y="159" name="hu"/>
  <anchor x="773" y="0" name="hwa"/>
  <anchor x="593" y="1112" name="neck"/>
  <anchor x="409" y="24" name="ye"/>
  <anchor x="308" y="5" name="ye.extend"/>
  <anchor x="310" y="280" name="yee"/>
  <anchor x="140" y="381" name="yi"/>
  <anchor x="310" y="235" name="yu"/>
  <outline>
    <contour>
      <point x="265" y="0" type="line"/>
      <point x="319" y="0" type="line"/>
      <point x="179" y="577" type="line"/>
      <point x="917" y="577" type="line" smooth="yes"/>
      <point x="956" y="577"/>
      <point x="952" y="595"/>
      <point x="952" y="634" type="curve" smooth="yes"/>
      <point x="952" y="914"/>
      <point x="822" y="1102"/>
      <point x="581" y="1102" type="curve" smooth="yes"/>
      <point x="416" y="1102"/>
      <point x="267" y="1004"/>
      <point x="187" y="837" type="curve" smooth="yes"/>
      <point x="154" y="768"/>
      <point x="117" y="663"/>
      <point x="135" y="582" type="curve" smooth="yes"/>
    </contour>
    <contour>
      <point x="184" y="631" type="line"/>
      <point x="209" y="874"/>
      <point x="370" y="1048"/>
      <point x="581" y="1048" type="curve" smooth="yes"/>
      <point x="806" y="1048"/>
      <point x="898" y="856"/>
      <point x="898" y="631" type="curve"/>
    </contour>
  </outline>
</glyph>
